<svg width="1086" height="610" viewBox="0 0 1086 610" fill="none" xmlns="http://www.w3.org/2000/svg">
<rect width="1086" height="610" fill="#141414" fill-opacity="0.17"/>
<path d="M444.878 122.784H448.718L454.382 152.736H455.773L462.542 123.072H466.862L473.63 152.736H475.022L480.686 122.784H484.478L477.758 156H470.99L464.702 127.632L458.414 156H451.646L444.878 122.784ZM504.792 153.024L506.184 152.88L506.28 155.712C502.632 156.224 499.512 156.48 496.92 156.48C493.464 156.48 491.016 155.488 489.576 153.504C488.136 151.488 487.416 148.368 487.416 144.144C487.416 135.728 490.76 131.52 497.448 131.52C500.68 131.52 503.096 132.432 504.696 134.256C506.296 136.048 507.096 138.88 507.096 142.752L506.904 145.488H491.064C491.064 148.144 491.544 150.112 492.504 151.392C493.464 152.672 495.128 153.312 497.496 153.312C499.896 153.312 502.328 153.216 504.792 153.024ZM503.496 142.608C503.496 139.664 503.016 137.584 502.056 136.368C501.128 135.152 499.592 134.544 497.448 134.544C495.336 134.544 493.736 135.184 492.648 136.464C491.592 137.744 491.048 139.792 491.016 142.608H503.496ZM512.994 156V121.536H516.594V156H512.994ZM532.791 131.52C533.847 131.52 535.639 131.712 538.167 132.096L539.319 132.24L539.175 135.168C536.615 134.88 534.727 134.736 533.511 134.736C530.791 134.736 528.935 135.392 527.943 136.704C526.983 137.984 526.503 140.384 526.503 143.904C526.503 147.392 526.951 149.824 527.847 151.2C528.775 152.576 530.679 153.264 533.559 153.264L539.223 152.832L539.367 155.808C536.391 156.256 534.167 156.48 532.695 156.48C528.951 156.48 526.359 155.52 524.919 153.6C523.511 151.68 522.807 148.448 522.807 143.904C522.807 139.328 523.575 136.128 525.111 134.304C526.647 132.448 529.207 131.52 532.791 131.52ZM543.384 143.952C543.384 139.568 544.168 136.4 545.736 134.448C547.304 132.496 549.944 131.52 553.656 131.52C557.4 131.52 560.04 132.496 561.576 134.448C563.144 136.4 563.928 139.568 563.928 143.952C563.928 148.336 563.192 151.52 561.72 153.504C560.248 155.488 557.56 156.48 553.656 156.48C549.752 156.48 547.064 155.488 545.592 153.504C544.12 151.52 543.384 148.336 543.384 143.952ZM547.08 143.904C547.08 147.392 547.496 149.84 548.328 151.248C549.192 152.656 550.968 153.36 553.656 153.36C556.376 153.36 558.152 152.672 558.984 151.296C559.816 149.888 560.232 147.424 560.232 143.904C560.232 140.384 559.768 137.968 558.84 136.656C557.912 135.312 556.184 134.64 553.656 134.64C551.16 134.64 549.432 135.312 548.472 136.656C547.544 137.968 547.08 140.384 547.08 143.904ZM573.4 156H569.8V132H573.352V133.68C575.752 132.24 578.088 131.52 580.36 131.52C583.336 131.52 585.416 132.336 586.6 133.968C587.656 133.328 589.016 132.768 590.68 132.288C592.376 131.776 593.864 131.52 595.144 131.52C598.344 131.52 600.488 132.384 601.576 134.112C602.696 135.808 603.256 138.88 603.256 143.328V156H599.656V143.424C599.656 140.096 599.336 137.824 598.696 136.608C598.056 135.36 596.696 134.736 594.616 134.736C593.56 134.736 592.472 134.896 591.352 135.216C590.232 135.504 589.368 135.792 588.76 136.08L587.848 136.512C588.264 137.568 588.472 139.904 588.472 143.52V156H584.872V143.616C584.872 140.16 584.552 137.824 583.912 136.608C583.304 135.36 581.944 134.736 579.832 134.736C578.808 134.736 577.752 134.896 576.664 135.216C575.608 135.504 574.792 135.792 574.216 136.08L573.4 136.512V156ZM626.245 153.024L627.637 152.88L627.733 155.712C624.085 156.224 620.965 156.48 618.373 156.48C614.917 156.48 612.469 155.488 611.029 153.504C609.589 151.488 608.869 148.368 608.869 144.144C608.869 135.728 612.213 131.52 618.901 131.52C622.133 131.52 624.549 132.432 626.149 134.256C627.749 136.048 628.549 138.88 628.549 142.752L628.357 145.488H612.517C612.517 148.144 612.997 150.112 613.957 151.392C614.917 152.672 616.581 153.312 618.949 153.312C621.349 153.312 623.781 153.216 626.245 153.024ZM624.949 142.608C624.949 139.664 624.469 137.584 623.509 136.368C622.581 135.152 621.045 134.544 618.901 134.544C616.789 134.544 615.189 135.184 614.101 136.464C613.045 137.744 612.501 139.792 612.469 142.608H624.949ZM634.687 156V150.624H638.623V156H634.687ZM634.975 145.056L634.735 122.784H638.527L638.287 145.056H634.975Z" fill="white"/>
<path d="M233.536 206.736C231.888 207.072 230.48 207.24 229.312 207.24C228.144 207.24 227.2 207.12 226.48 206.88C225.776 206.624 225.2 206.272 224.752 205.824C224.304 205.376 223.952 204.792 223.696 204.072C223.216 202.76 222.976 200.976 222.976 198.72C222.976 195.104 223.552 192.712 224.704 191.544C225.648 190.568 227.088 190.08 229.024 190.08C230.352 190.08 231.856 190.248 233.536 190.584L233.464 191.88C231.8 191.576 230.464 191.424 229.456 191.424C228.448 191.424 227.664 191.536 227.104 191.76C226.56 191.968 226.112 192.256 225.76 192.624C225.424 192.976 225.168 193.472 224.992 194.112C224.672 195.2 224.512 196.56 224.512 198.192C224.512 199.824 224.568 201.048 224.68 201.864C224.792 202.664 225.008 203.392 225.328 204.048C225.648 204.704 226.12 205.176 226.744 205.464C227.368 205.752 228.232 205.896 229.336 205.896C230.44 205.896 231.816 205.744 233.464 205.44L233.536 206.736ZM237.759 207H236.343V189.672H237.759V195.696C239.103 195.072 240.399 194.76 241.647 194.76C243.247 194.76 244.311 195.184 244.839 196.032C245.383 196.88 245.655 198.432 245.655 200.688V207H244.215V200.76C244.215 198.92 244.039 197.68 243.687 197.04C243.351 196.384 242.607 196.056 241.455 196.056C240.895 196.056 240.303 196.128 239.679 196.272C239.071 196.4 238.599 196.536 238.263 196.68L237.759 196.872V207ZM248.636 200.976C248.636 198.72 249.012 197.12 249.764 196.176C250.532 195.232 251.828 194.76 253.652 194.76C255.492 194.76 256.788 195.232 257.54 196.176C258.308 197.12 258.692 198.72 258.692 200.976C258.692 203.232 258.34 204.84 257.636 205.8C256.948 206.76 255.628 207.24 253.676 207.24C251.724 207.24 250.396 206.76 249.692 205.8C248.988 204.84 248.636 203.232 248.636 200.976ZM250.124 200.952C250.124 202.84 250.34 204.152 250.772 204.888C251.22 205.608 252.18 205.968 253.652 205.968C255.14 205.968 256.108 205.6 256.556 204.864C257.004 204.128 257.228 202.824 257.228 200.952C257.228 199.064 256.972 197.776 256.46 197.088C255.964 196.384 255.036 196.032 253.676 196.032C252.316 196.032 251.38 196.376 250.868 197.064C250.372 197.752 250.124 199.048 250.124 200.952ZM261.292 200.976C261.292 198.72 261.668 197.12 262.42 196.176C263.188 195.232 264.484 194.76 266.308 194.76C268.148 194.76 269.444 195.232 270.196 196.176C270.964 197.12 271.348 198.72 271.348 200.976C271.348 203.232 270.996 204.84 270.292 205.8C269.604 206.76 268.284 207.24 266.332 207.24C264.38 207.24 263.052 206.76 262.348 205.8C261.644 204.84 261.292 203.232 261.292 200.976ZM262.78 200.952C262.78 202.84 262.996 204.152 263.428 204.888C263.876 205.608 264.836 205.968 266.308 205.968C267.796 205.968 268.764 205.6 269.212 204.864C269.66 204.128 269.884 202.824 269.884 200.952C269.884 199.064 269.628 197.776 269.116 197.088C268.62 196.384 267.692 196.032 266.332 196.032C264.972 196.032 264.036 196.376 263.524 197.064C263.028 197.752 262.78 199.048 262.78 200.952ZM278.076 196.08C276.188 196.08 275.244 196.76 275.244 198.12C275.244 198.744 275.452 199.184 275.868 199.44C276.284 199.696 277.22 199.952 278.676 200.208C280.148 200.448 281.18 200.784 281.772 201.216C282.38 201.648 282.684 202.48 282.684 203.712C282.684 204.928 282.292 205.824 281.508 206.4C280.724 206.96 279.572 207.24 278.052 207.24C277.172 207.24 276.036 207.128 274.644 206.904L273.948 206.808L274.044 205.536C275.836 205.808 277.212 205.944 278.172 205.944C279.132 205.944 279.876 205.776 280.404 205.44C280.948 205.104 281.22 204.536 281.22 203.736C281.22 202.936 280.996 202.408 280.548 202.152C280.116 201.88 279.172 201.632 277.716 201.408C276.276 201.184 275.26 200.864 274.668 200.448C274.076 200.032 273.78 199.248 273.78 198.096C273.78 196.944 274.188 196.104 275.004 195.576C275.82 195.048 276.828 194.784 278.028 194.784C278.988 194.784 280.188 194.888 281.628 195.096L282.276 195.192L282.228 196.464C280.516 196.208 279.132 196.08 278.076 196.08ZM293.529 205.8L294.249 205.728L294.297 206.904C292.489 207.128 290.961 207.24 289.713 207.24C287.985 207.224 286.777 206.712 286.089 205.704C285.401 204.696 285.057 203.144 285.057 201.048C285.057 196.856 286.705 194.76 290.001 194.76C291.585 194.76 292.769 195.216 293.553 196.128C294.337 197.024 294.729 198.464 294.729 200.448L294.681 201.6H286.521C286.521 203.072 286.769 204.168 287.265 204.888C287.777 205.592 288.641 205.944 289.857 205.944C291.089 205.944 292.313 205.896 293.529 205.8ZM286.521 200.4H293.289C293.289 198.816 293.025 197.688 292.497 197.016C291.985 196.344 291.153 196.008 290.001 196.008C288.865 196.008 288.001 196.36 287.409 197.064C286.817 197.752 286.521 198.864 286.521 200.4ZM311.208 198.576V205.008C311.272 205.6 311.792 205.952 312.768 206.064L312.696 207.216C311.464 207.216 310.56 206.896 309.984 206.256C308.48 206.912 306.976 207.24 305.472 207.24C304.4 207.24 303.584 206.936 303.024 206.328C302.464 205.704 302.184 204.824 302.184 203.688C302.184 202.536 302.464 201.688 303.024 201.144C303.6 200.584 304.496 200.24 305.712 200.112L309.792 199.704V198.576C309.792 197.68 309.592 197.04 309.192 196.656C308.808 196.256 308.288 196.056 307.632 196.056C306.608 196.056 305.28 196.152 303.648 196.344L302.904 196.416L302.832 195.264C304.592 194.928 306.128 194.76 307.44 194.76C308.768 194.76 309.728 195.072 310.32 195.696C310.912 196.32 311.208 197.28 311.208 198.576ZM303.672 203.592C303.672 205.208 304.336 206.016 305.664 206.016C306.24 206.016 306.872 205.952 307.56 205.824C308.248 205.68 308.792 205.536 309.192 205.392L309.792 205.176V200.832L305.88 201.24C305.096 201.304 304.528 201.528 304.176 201.912C303.84 202.296 303.672 202.856 303.672 203.592ZM329.178 189.672V207H327.738V206.112C326.474 206.864 325.194 207.24 323.898 207.24C323.306 207.24 322.794 207.168 322.362 207.024C321.93 206.896 321.49 206.632 321.042 206.232C320.13 205.416 319.674 203.824 319.674 201.456C319.674 199.072 320.058 197.36 320.826 196.32C321.594 195.28 322.89 194.76 324.714 194.76C325.418 194.76 326.426 194.864 327.738 195.072V189.672H329.178ZM322.098 205.152C322.402 205.456 322.698 205.664 322.986 205.776C323.29 205.888 323.674 205.944 324.138 205.944C324.618 205.944 325.162 205.856 325.77 205.68C326.394 205.504 326.882 205.336 327.234 205.176L327.738 204.912V196.32C326.458 196.128 325.466 196.032 324.762 196.032C323.402 196.032 322.458 196.448 321.93 197.28C321.418 198.112 321.162 199.4 321.162 201.144C321.162 203.192 321.474 204.528 322.098 205.152ZM341.021 198.576V205.008C341.085 205.6 341.605 205.952 342.581 206.064L342.509 207.216C341.277 207.216 340.373 206.896 339.797 206.256C338.293 206.912 336.789 207.24 335.285 207.24C334.213 207.24 333.397 206.936 332.837 206.328C332.277 205.704 331.997 204.824 331.997 203.688C331.997 202.536 332.277 201.688 332.837 201.144C333.413 200.584 334.309 200.24 335.525 200.112L339.605 199.704V198.576C339.605 197.68 339.405 197.04 339.005 196.656C338.621 196.256 338.101 196.056 337.445 196.056C336.421 196.056 335.093 196.152 333.461 196.344L332.717 196.416L332.645 195.264C334.405 194.928 335.941 194.76 337.253 194.76C338.581 194.76 339.541 195.072 340.133 195.696C340.725 196.32 341.021 197.28 341.021 198.576ZM333.485 203.592C333.485 205.208 334.149 206.016 335.477 206.016C336.053 206.016 336.685 205.952 337.373 205.824C338.061 205.68 338.605 205.536 339.005 205.392L339.605 205.176V200.832L335.693 201.24C334.909 201.304 334.341 201.528 333.989 201.912C333.653 202.296 333.485 202.856 333.485 203.592ZM350.813 196.272H346.805V202.2C346.805 203.752 346.917 204.768 347.141 205.248C347.365 205.728 347.893 205.968 348.725 205.968L350.933 205.8L351.029 207.024C349.973 207.184 349.165 207.264 348.605 207.264C347.389 207.264 346.541 206.968 346.061 206.376C345.597 205.768 345.365 204.616 345.365 202.92V196.272H343.589V195H345.365V191.232H346.805V195H350.813V196.272ZM361.006 205.8L361.726 205.728L361.774 206.904C359.966 207.128 358.438 207.24 357.19 207.24C355.462 207.224 354.254 206.712 353.566 205.704C352.878 204.696 352.534 203.144 352.534 201.048C352.534 196.856 354.182 194.76 357.478 194.76C359.062 194.76 360.246 195.216 361.03 196.128C361.814 197.024 362.206 198.464 362.206 200.448L362.158 201.6H353.998C353.998 203.072 354.246 204.168 354.742 204.888C355.254 205.592 356.118 205.944 357.334 205.944C358.566 205.944 359.79 205.896 361.006 205.8ZM353.998 200.4H360.766C360.766 198.816 360.502 197.688 359.974 197.016C359.462 196.344 358.63 196.008 357.478 196.008C356.342 196.008 355.478 196.36 354.886 197.064C354.294 197.752 353.998 198.864 353.998 200.4ZM378.685 198.576V205.008C378.749 205.6 379.269 205.952 380.245 206.064L380.173 207.216C378.941 207.216 378.037 206.896 377.461 206.256C375.957 206.912 374.453 207.24 372.949 207.24C371.877 207.24 371.061 206.936 370.501 206.328C369.941 205.704 369.661 204.824 369.661 203.688C369.661 202.536 369.941 201.688 370.501 201.144C371.077 200.584 371.973 200.24 373.189 200.112L377.269 199.704V198.576C377.269 197.68 377.069 197.04 376.669 196.656C376.285 196.256 375.765 196.056 375.109 196.056C374.085 196.056 372.757 196.152 371.125 196.344L370.381 196.416L370.309 195.264C372.069 194.928 373.605 194.76 374.917 194.76C376.245 194.76 377.205 195.072 377.797 195.696C378.389 196.32 378.685 197.28 378.685 198.576ZM371.149 203.592C371.149 205.208 371.813 206.016 373.141 206.016C373.717 206.016 374.349 205.952 375.037 205.824C375.725 205.68 376.269 205.536 376.669 205.392L377.269 205.176V200.832L373.357 201.24C372.573 201.304 372.005 201.528 371.653 201.912C371.317 202.296 371.149 202.856 371.149 203.592ZM383.821 207H382.405V195H383.821V195.888C385.165 195.136 386.469 194.76 387.733 194.76C389.333 194.76 390.397 195.184 390.925 196.032C391.469 196.88 391.741 198.432 391.741 200.688V207H390.301V200.76C390.301 198.92 390.125 197.68 389.773 197.04C389.421 196.384 388.669 196.056 387.517 196.056C386.957 196.056 386.365 196.144 385.741 196.32C385.133 196.48 384.661 196.648 384.325 196.824L383.821 197.064V207ZM404.178 189.672V207H402.738V206.112C401.474 206.864 400.194 207.24 398.898 207.24C398.306 207.24 397.794 207.168 397.362 207.024C396.93 206.896 396.49 206.632 396.042 206.232C395.13 205.416 394.674 203.824 394.674 201.456C394.674 199.072 395.058 197.36 395.826 196.32C396.594 195.28 397.89 194.76 399.714 194.76C400.418 194.76 401.426 194.864 402.738 195.072V189.672H404.178ZM397.098 205.152C397.402 205.456 397.698 205.664 397.986 205.776C398.29 205.888 398.674 205.944 399.138 205.944C399.618 205.944 400.162 205.856 400.77 205.68C401.394 205.504 401.882 205.336 402.234 205.176L402.738 204.912V196.32C401.458 196.128 400.466 196.032 399.762 196.032C398.402 196.032 397.458 196.448 396.93 197.28C396.418 198.112 396.162 199.4 396.162 201.144C396.162 203.192 396.474 204.528 397.098 205.152ZM414.454 207H413.038V189.672H414.454V195.696C415.798 195.072 417.094 194.76 418.342 194.76C419.942 194.76 421.006 195.184 421.534 196.032C422.078 196.88 422.35 198.432 422.35 200.688V207H420.91V200.76C420.91 198.92 420.734 197.68 420.382 197.04C420.046 196.384 419.302 196.056 418.15 196.056C417.59 196.056 416.998 196.128 416.374 196.272C415.766 196.4 415.294 196.536 414.958 196.68L414.454 196.872V207ZM425.835 207V195H427.251V207H425.835ZM425.835 192V190.2H427.251V192H425.835ZM436.923 196.272H432.915V202.2C432.915 203.752 433.027 204.768 433.251 205.248C433.475 205.728 434.003 205.968 434.835 205.968L437.043 205.8L437.139 207.024C436.083 207.184 435.275 207.264 434.715 207.264C433.499 207.264 432.651 206.968 432.171 206.376C431.707 205.768 431.475 204.616 431.475 202.92V196.272H429.699V195H431.475V191.232H432.915V195H436.923V196.272ZM448.069 196.08C446.181 196.08 445.237 196.76 445.237 198.12C445.237 198.744 445.445 199.184 445.861 199.44C446.277 199.696 447.213 199.952 448.669 200.208C450.141 200.448 451.173 200.784 451.765 201.216C452.373 201.648 452.677 202.48 452.677 203.712C452.677 204.928 452.285 205.824 451.501 206.4C450.717 206.96 449.565 207.24 448.045 207.24C447.165 207.24 446.029 207.128 444.637 206.904L443.941 206.808L444.037 205.536C445.829 205.808 447.205 205.944 448.165 205.944C449.125 205.944 449.869 205.776 450.397 205.44C450.941 205.104 451.213 204.536 451.213 203.736C451.213 202.936 450.989 202.408 450.541 202.152C450.109 201.88 449.165 201.632 447.709 201.408C446.269 201.184 445.253 200.864 444.661 200.448C444.069 200.032 443.773 199.248 443.773 198.096C443.773 196.944 444.181 196.104 444.997 195.576C445.813 195.048 446.821 194.784 448.021 194.784C448.981 194.784 450.181 194.888 451.621 195.096L452.269 195.192L452.221 196.464C450.509 196.208 449.125 196.08 448.069 196.08ZM463.521 205.8L464.241 205.728L464.289 206.904C462.481 207.128 460.953 207.24 459.705 207.24C457.977 207.224 456.769 206.712 456.081 205.704C455.393 204.696 455.049 203.144 455.049 201.048C455.049 196.856 456.697 194.76 459.993 194.76C461.577 194.76 462.761 195.216 463.545 196.128C464.329 197.024 464.721 198.464 464.721 200.448L464.673 201.6H456.513C456.513 203.072 456.761 204.168 457.257 204.888C457.769 205.592 458.633 205.944 459.849 205.944C461.081 205.944 462.305 205.896 463.521 205.8ZM456.513 200.4H463.281C463.281 198.816 463.017 197.688 462.489 197.016C461.977 196.344 461.145 196.008 459.993 196.008C458.857 196.008 457.993 196.36 457.401 197.064C456.809 197.752 456.513 198.864 456.513 200.4ZM475.927 198.576V205.008C475.991 205.6 476.511 205.952 477.487 206.064L477.415 207.216C476.183 207.216 475.279 206.896 474.703 206.256C473.199 206.912 471.695 207.24 470.191 207.24C469.119 207.24 468.303 206.936 467.743 206.328C467.183 205.704 466.903 204.824 466.903 203.688C466.903 202.536 467.183 201.688 467.743 201.144C468.319 200.584 469.215 200.24 470.431 200.112L474.511 199.704V198.576C474.511 197.68 474.311 197.04 473.911 196.656C473.527 196.256 473.007 196.056 472.351 196.056C471.327 196.056 469.999 196.152 468.367 196.344L467.623 196.416L467.551 195.264C469.311 194.928 470.847 194.76 472.159 194.76C473.487 194.76 474.447 195.072 475.039 195.696C475.631 196.32 475.927 197.28 475.927 198.576ZM468.391 203.592C468.391 205.208 469.055 206.016 470.383 206.016C470.959 206.016 471.591 205.952 472.279 205.824C472.967 205.68 473.511 205.536 473.911 205.392L474.511 205.176V200.832L470.599 201.24C469.815 201.304 469.247 201.528 468.895 201.912C468.559 202.296 468.391 202.856 468.391 203.592ZM479.648 207V195H481.064V196.728C481.656 196.312 482.376 195.912 483.224 195.528C484.088 195.144 484.88 194.888 485.6 194.76V196.2C484.912 196.344 484.192 196.568 483.44 196.872C482.688 197.16 482.104 197.416 481.688 197.64L481.064 198V207H479.648ZM491.94 194.76C492.66 194.76 493.516 194.84 494.508 195L495.06 195.072L494.988 196.296C493.724 196.136 492.788 196.056 492.18 196.056C490.756 196.056 489.78 196.408 489.252 197.112C488.724 197.8 488.46 199.08 488.46 200.952C488.46 202.808 488.7 204.104 489.18 204.84C489.66 205.576 490.66 205.944 492.18 205.944L495.036 205.728L495.084 206.952C493.66 207.144 492.604 207.24 491.916 207.24C490.012 207.24 488.708 206.768 488.004 205.824C487.316 204.88 486.972 203.256 486.972 200.952C486.972 198.648 487.348 197.04 488.1 196.128C488.868 195.216 490.148 194.76 491.94 194.76ZM499.275 207H497.859V189.672H499.275V195.696C500.619 195.072 501.915 194.76 503.163 194.76C504.763 194.76 505.827 195.184 506.355 196.032C506.899 196.88 507.171 198.432 507.171 200.688V207H505.731V200.76C505.731 198.92 505.555 197.68 505.203 197.04C504.867 196.384 504.123 196.056 502.971 196.056C502.411 196.056 501.819 196.128 501.195 196.272C500.587 196.4 500.115 196.536 499.779 196.68L499.275 196.872V207ZM522.001 196.272H517.993V202.2C517.993 203.752 518.105 204.768 518.329 205.248C518.553 205.728 519.081 205.968 519.913 205.968L522.121 205.8L522.217 207.024C521.161 207.184 520.353 207.264 519.793 207.264C518.577 207.264 517.729 206.968 517.249 206.376C516.785 205.768 516.553 204.616 516.553 202.92V196.272H514.777V195H516.553V191.232H517.993V195H522.001V196.272ZM523.745 200.976C523.745 198.72 524.121 197.12 524.873 196.176C525.641 195.232 526.937 194.76 528.761 194.76C530.601 194.76 531.897 195.232 532.649 196.176C533.417 197.12 533.801 198.72 533.801 200.976C533.801 203.232 533.449 204.84 532.745 205.8C532.057 206.76 530.737 207.24 528.785 207.24C526.833 207.24 525.505 206.76 524.801 205.8C524.097 204.84 523.745 203.232 523.745 200.976ZM525.233 200.952C525.233 202.84 525.449 204.152 525.881 204.888C526.329 205.608 527.289 205.968 528.761 205.968C530.249 205.968 531.217 205.6 531.665 204.864C532.113 204.128 532.337 202.824 532.337 200.952C532.337 199.064 532.081 197.776 531.569 197.088C531.073 196.384 530.145 196.032 528.785 196.032C527.425 196.032 526.489 196.376 525.977 197.064C525.481 197.752 525.233 199.048 525.233 200.952ZM545.803 196.08C543.915 196.08 542.971 196.76 542.971 198.12C542.971 198.744 543.179 199.184 543.595 199.44C544.011 199.696 544.947 199.952 546.403 200.208C547.875 200.448 548.907 200.784 549.499 201.216C550.107 201.648 550.411 202.48 550.411 203.712C550.411 204.928 550.019 205.824 549.235 206.4C548.451 206.96 547.299 207.24 545.779 207.24C544.899 207.24 543.763 207.128 542.371 206.904L541.675 206.808L541.771 205.536C543.563 205.808 544.939 205.944 545.899 205.944C546.859 205.944 547.603 205.776 548.131 205.44C548.675 205.104 548.947 204.536 548.947 203.736C548.947 202.936 548.723 202.408 548.275 202.152C547.843 201.88 546.899 201.632 545.443 201.408C544.003 201.184 542.987 200.864 542.395 200.448C541.803 200.032 541.507 199.248 541.507 198.096C541.507 196.944 541.915 196.104 542.731 195.576C543.547 195.048 544.555 194.784 545.755 194.784C546.715 194.784 547.915 194.888 549.355 195.096L550.003 195.192L549.955 196.464C548.243 196.208 546.859 196.08 545.803 196.08ZM561.256 205.8L561.976 205.728L562.024 206.904C560.216 207.128 558.688 207.24 557.44 207.24C555.712 207.224 554.504 206.712 553.816 205.704C553.128 204.696 552.784 203.144 552.784 201.048C552.784 196.856 554.432 194.76 557.728 194.76C559.312 194.76 560.496 195.216 561.28 196.128C562.064 197.024 562.456 198.464 562.456 200.448L562.408 201.6H554.248C554.248 203.072 554.496 204.168 554.992 204.888C555.504 205.592 556.368 205.944 557.584 205.944C558.816 205.944 560.04 205.896 561.256 205.8ZM554.248 200.4H561.016C561.016 198.816 560.752 197.688 560.224 197.016C559.712 196.344 558.88 196.008 557.728 196.008C556.592 196.008 555.728 196.36 555.136 197.064C554.544 197.752 554.248 198.864 554.248 200.4ZM573.349 205.8L574.069 205.728L574.117 206.904C572.309 207.128 570.781 207.24 569.533 207.24C567.805 207.224 566.597 206.712 565.909 205.704C565.221 204.696 564.877 203.144 564.877 201.048C564.877 196.856 566.525 194.76 569.821 194.76C571.405 194.76 572.589 195.216 573.373 196.128C574.157 197.024 574.549 198.464 574.549 200.448L574.501 201.6H566.341C566.341 203.072 566.589 204.168 567.085 204.888C567.597 205.592 568.461 205.944 569.677 205.944C570.909 205.944 572.133 205.896 573.349 205.8ZM566.341 200.4H573.109C573.109 198.816 572.845 197.688 572.317 197.016C571.805 196.344 570.973 196.008 569.821 196.008C568.685 196.008 567.821 196.36 567.229 197.064C566.637 197.752 566.341 198.864 566.341 200.4ZM588.845 196.272H584.837V202.2C584.837 203.752 584.949 204.768 585.173 205.248C585.397 205.728 585.925 205.968 586.757 205.968L588.965 205.8L589.061 207.024C588.005 207.184 587.197 207.264 586.637 207.264C585.421 207.264 584.573 206.968 584.093 206.376C583.629 205.768 583.397 204.616 583.397 202.92V196.272H581.621V195H583.397V191.232H584.837V195H588.845V196.272ZM592.509 207H591.093V189.672H592.509V195.696C593.853 195.072 595.149 194.76 596.397 194.76C597.997 194.76 599.061 195.184 599.589 196.032C600.133 196.88 600.405 198.432 600.405 200.688V207H598.965V200.76C598.965 198.92 598.789 197.68 598.437 197.04C598.101 196.384 597.357 196.056 596.205 196.056C595.645 196.056 595.053 196.128 594.429 196.272C593.821 196.4 593.349 196.536 593.013 196.68L592.509 196.872V207ZM611.834 205.8L612.554 205.728L612.602 206.904C610.794 207.128 609.266 207.24 608.018 207.24C606.29 207.224 605.082 206.712 604.394 205.704C603.706 204.696 603.362 203.144 603.362 201.048C603.362 196.856 605.01 194.76 608.306 194.76C609.89 194.76 611.074 195.216 611.858 196.128C612.642 197.024 613.034 198.464 613.034 200.448L612.986 201.6H604.826C604.826 203.072 605.074 204.168 605.57 204.888C606.082 205.592 606.946 205.944 608.162 205.944C609.394 205.944 610.618 205.896 611.834 205.8ZM604.826 200.4H611.594C611.594 198.816 611.33 197.688 610.802 197.016C610.29 196.344 609.458 196.008 608.306 196.008C607.17 196.008 606.306 196.36 605.714 197.064C605.122 197.752 604.826 198.864 604.826 200.4ZM621.545 207V190.32H624.473L631.457 205.68H632.009V190.32H633.473V207H630.593L623.561 191.664H623.033V207H621.545ZM636.182 207L640.982 190.32H644.462L649.238 207H647.774L646.43 202.392H638.99L637.67 207H636.182ZM642.062 191.616L639.35 201.072H646.07L643.358 191.616H642.062ZM656.268 191.376C653.692 191.376 652.404 192.36 652.404 194.328C652.404 195.48 652.692 196.256 653.268 196.656C653.86 197.056 655.004 197.424 656.7 197.76C658.412 198.096 659.628 198.56 660.348 199.152C661.084 199.744 661.452 200.736 661.452 202.128C661.452 203.92 661.004 205.216 660.108 206.016C659.228 206.8 657.932 207.192 656.22 207.192C654.972 207.192 653.524 207.08 651.876 206.856L651.012 206.736L651.18 205.464C653.372 205.736 655.068 205.872 656.268 205.872C657.468 205.872 658.38 205.584 659.004 205.008C659.628 204.416 659.94 203.56 659.94 202.44C659.94 201.304 659.66 200.536 659.1 200.136C658.556 199.72 657.676 199.4 656.46 199.176C655.26 198.952 654.38 198.752 653.82 198.576C653.26 198.384 652.732 198.12 652.236 197.784C651.756 197.432 651.412 196.992 651.204 196.464C650.996 195.92 650.892 195.24 650.892 194.424C650.892 191.512 652.652 190.056 656.172 190.056C657.228 190.056 658.604 190.168 660.3 190.392L661.092 190.512L660.972 191.784C658.764 191.512 657.196 191.376 656.268 191.376ZM663.018 207L667.818 190.32H671.298L676.074 207H674.61L673.266 202.392H665.826L664.506 207H663.018ZM668.898 191.616L666.186 201.072H672.906L670.194 191.616H668.898ZM690.125 201.192H685.517V207H684.029V190.32H690.125C691.901 190.32 693.205 190.752 694.037 191.616C694.885 192.48 695.309 193.808 695.309 195.6C695.309 199.328 693.581 201.192 690.125 201.192ZM685.517 199.872H690.125C692.557 199.872 693.773 198.448 693.773 195.6C693.773 194.24 693.485 193.24 692.909 192.6C692.333 191.96 691.405 191.64 690.125 191.64H685.517V199.872ZM697.968 207V195H699.384V207H697.968ZM697.968 192V190.2H699.384V192H697.968ZM707.448 194.76C708.168 194.76 709.024 194.84 710.016 195L710.568 195.072L710.496 196.296C709.232 196.136 708.296 196.056 707.688 196.056C706.264 196.056 705.288 196.408 704.76 197.112C704.232 197.8 703.968 199.08 703.968 200.952C703.968 202.808 704.208 204.104 704.688 204.84C705.168 205.576 706.168 205.944 707.688 205.944L710.544 205.728L710.592 206.952C709.168 207.144 708.112 207.24 707.424 207.24C705.52 207.24 704.216 206.768 703.512 205.824C702.824 204.88 702.48 203.256 702.48 200.952C702.48 198.648 702.856 197.04 703.608 196.128C704.376 195.216 705.656 194.76 707.448 194.76ZM719.438 196.272H715.43V202.2C715.43 203.752 715.542 204.768 715.766 205.248C715.99 205.728 716.518 205.968 717.35 205.968L719.558 205.8L719.654 207.024C718.598 207.184 717.79 207.264 717.23 207.264C716.014 207.264 715.166 206.968 714.686 206.376C714.222 205.768 713.99 204.616 713.99 202.92V196.272H712.214V195H713.99V191.232H715.43V195H719.438V196.272ZM729.271 195H730.687V207H729.271V206.112C728.039 206.864 726.807 207.24 725.575 207.24C723.943 207.24 722.863 206.824 722.335 205.992C721.823 205.16 721.567 203.584 721.567 201.264V195H722.983V201.24C722.983 203.096 723.151 204.344 723.487 204.984C723.839 205.624 724.591 205.944 725.743 205.944C726.303 205.944 726.879 205.864 727.471 205.704C728.063 205.528 728.511 205.352 728.815 205.176L729.271 204.936V195ZM734.296 207V195H735.712V196.728C736.304 196.312 737.024 195.912 737.872 195.528C738.736 195.144 739.528 194.888 740.248 194.76V196.2C739.56 196.344 738.84 196.568 738.088 196.872C737.336 197.16 736.752 197.416 736.336 197.64L735.712 198V207H734.296ZM750.068 205.8L750.788 205.728L750.836 206.904C749.028 207.128 747.5 207.24 746.252 207.24C744.524 207.224 743.316 206.712 742.628 205.704C741.94 204.696 741.596 203.144 741.596 201.048C741.596 196.856 743.244 194.76 746.54 194.76C748.124 194.76 749.308 195.216 750.092 196.128C750.876 197.024 751.268 198.464 751.268 200.448L751.22 201.6H743.06C743.06 203.072 743.308 204.168 743.804 204.888C744.316 205.592 745.18 205.944 746.396 205.944C747.628 205.944 748.852 205.896 750.068 205.8ZM743.06 200.4H749.828C749.828 198.816 749.564 197.688 749.036 197.016C748.524 196.344 747.692 196.008 746.54 196.008C745.404 196.008 744.54 196.36 743.948 197.064C743.356 197.752 743.06 198.864 743.06 200.4ZM758.987 200.976C758.987 198.72 759.363 197.12 760.115 196.176C760.883 195.232 762.179 194.76 764.003 194.76C765.843 194.76 767.139 195.232 767.891 196.176C768.659 197.12 769.043 198.72 769.043 200.976C769.043 203.232 768.691 204.84 767.987 205.8C767.299 206.76 765.979 207.24 764.027 207.24C762.075 207.24 760.747 206.76 760.043 205.8C759.339 204.84 758.987 203.232 758.987 200.976ZM760.475 200.952C760.475 202.84 760.691 204.152 761.123 204.888C761.571 205.608 762.531 205.968 764.003 205.968C765.491 205.968 766.459 205.6 766.907 204.864C767.355 204.128 767.579 202.824 767.579 200.952C767.579 199.064 767.323 197.776 766.811 197.088C766.315 196.384 765.387 196.032 764.027 196.032C762.667 196.032 761.731 196.376 761.219 197.064C760.723 197.752 760.475 199.048 760.475 200.952ZM774.068 196.272V207H772.628V196.272H771.068V195H772.628V193.776C772.628 192.08 772.86 190.936 773.324 190.344C773.788 189.736 774.612 189.432 775.796 189.432L778.124 189.552V190.776C777.18 190.744 776.476 190.728 776.012 190.728C775.26 190.728 774.748 190.936 774.476 191.352C774.204 191.768 774.068 192.584 774.068 193.8V195H777.692V196.272H774.068ZM791.274 196.272H787.266V202.2C787.266 203.752 787.378 204.768 787.602 205.248C787.826 205.728 788.354 205.968 789.186 205.968L791.394 205.8L791.49 207.024C790.434 207.184 789.626 207.264 789.066 207.264C787.85 207.264 787.002 206.968 786.522 206.376C786.058 205.768 785.826 204.616 785.826 202.92V196.272H784.05V195H785.826V191.232H787.266V195H791.274V196.272ZM794.939 207H793.523V189.672H794.939V195.696C796.283 195.072 797.579 194.76 798.827 194.76C800.427 194.76 801.491 195.184 802.019 196.032C802.563 196.88 802.835 198.432 802.835 200.688V207H801.395V200.76C801.395 198.92 801.219 197.68 800.867 197.04C800.531 196.384 799.787 196.056 798.635 196.056C798.075 196.056 797.483 196.128 796.859 196.272C796.251 196.4 795.779 196.536 795.443 196.68L794.939 196.872V207ZM814.264 205.8L814.984 205.728L815.032 206.904C813.224 207.128 811.696 207.24 810.448 207.24C808.72 207.224 807.512 206.712 806.824 205.704C806.136 204.696 805.792 203.144 805.792 201.048C805.792 196.856 807.44 194.76 810.736 194.76C812.32 194.76 813.504 195.216 814.288 196.128C815.072 197.024 815.464 198.464 815.464 200.448L815.416 201.6H807.256C807.256 203.072 807.504 204.168 808 204.888C808.512 205.592 809.376 205.944 810.592 205.944C811.824 205.944 813.048 205.896 814.264 205.8ZM807.256 200.4H814.024C814.024 198.816 813.76 197.688 813.232 197.016C812.72 196.344 811.888 196.008 810.736 196.008C809.6 196.008 808.736 196.36 808.144 197.064C807.552 197.752 807.256 198.864 807.256 200.4ZM832.663 189.672V207H831.223V206.112C829.959 206.864 828.679 207.24 827.383 207.24C826.791 207.24 826.279 207.168 825.847 207.024C825.415 206.896 824.975 206.632 824.527 206.232C823.615 205.416 823.159 203.824 823.159 201.456C823.159 199.072 823.543 197.36 824.311 196.32C825.079 195.28 826.375 194.76 828.199 194.76C828.903 194.76 829.911 194.864 831.223 195.072V189.672H832.663ZM825.583 205.152C825.887 205.456 826.183 205.664 826.471 205.776C826.775 205.888 827.159 205.944 827.623 205.944C828.103 205.944 828.647 205.856 829.255 205.68C829.879 205.504 830.367 205.336 830.719 205.176L831.223 204.912V196.32C829.943 196.128 828.951 196.032 828.247 196.032C826.887 196.032 825.943 196.448 825.415 197.28C824.903 198.112 824.647 199.4 824.647 201.144C824.647 203.192 824.959 204.528 825.583 205.152ZM844.505 198.576V205.008C844.569 205.6 845.089 205.952 846.065 206.064L845.993 207.216C844.761 207.216 843.857 206.896 843.281 206.256C841.777 206.912 840.273 207.24 838.769 207.24C837.697 207.24 836.881 206.936 836.321 206.328C835.761 205.704 835.481 204.824 835.481 203.688C835.481 202.536 835.761 201.688 836.321 201.144C836.897 200.584 837.793 200.24 839.009 200.112L843.089 199.704V198.576C843.089 197.68 842.889 197.04 842.489 196.656C842.105 196.256 841.585 196.056 840.929 196.056C839.905 196.056 838.577 196.152 836.945 196.344L836.201 196.416L836.129 195.264C837.889 194.928 839.425 194.76 840.737 194.76C842.065 194.76 843.025 195.072 843.617 195.696C844.209 196.32 844.505 197.28 844.505 198.576ZM836.969 203.592C836.969 205.208 837.633 206.016 838.961 206.016C839.537 206.016 840.169 205.952 840.857 205.824C841.545 205.68 842.089 205.536 842.489 205.392L843.089 205.176V200.832L839.177 201.24C838.393 201.304 837.825 201.528 837.473 201.912C837.137 202.296 836.969 202.856 836.969 203.592ZM846.957 195H848.421L851.613 205.752H852.477L855.693 195H857.157L851.973 212.4H850.533L852.141 207H850.485L846.957 195ZM859.858 207V204.6H861.442V207H859.858ZM859.954 201.648L859.882 190.32H861.394L861.298 201.648H859.954ZM313.31 238H304.19V221.32H305.678V236.656H313.31V238ZM323.213 236.8L323.933 236.728L323.981 237.904C322.173 238.128 320.645 238.24 319.397 238.24C317.669 238.224 316.461 237.712 315.773 236.704C315.085 235.696 314.741 234.144 314.741 232.048C314.741 227.856 316.389 225.76 319.685 225.76C321.269 225.76 322.453 226.216 323.237 227.128C324.021 228.024 324.413 229.464 324.413 231.448L324.365 232.6H316.205C316.205 234.072 316.453 235.168 316.949 235.888C317.461 236.592 318.325 236.944 319.541 236.944C320.773 236.944 321.997 236.896 323.213 236.8ZM316.205 231.4H322.973C322.973 229.816 322.709 228.688 322.181 228.016C321.669 227.344 320.837 227.008 319.685 227.008C318.549 227.008 317.685 227.36 317.093 228.064C316.501 228.752 316.205 229.864 316.205 231.4ZM335.619 229.576V236.008C335.683 236.6 336.203 236.952 337.179 237.064L337.107 238.216C335.875 238.216 334.971 237.896 334.395 237.256C332.891 237.912 331.387 238.24 329.883 238.24C328.811 238.24 327.995 237.936 327.435 237.328C326.875 236.704 326.595 235.824 326.595 234.688C326.595 233.536 326.875 232.688 327.435 232.144C328.011 231.584 328.907 231.24 330.123 231.112L334.203 230.704V229.576C334.203 228.68 334.003 228.04 333.603 227.656C333.219 227.256 332.699 227.056 332.043 227.056C331.019 227.056 329.691 227.152 328.059 227.344L327.315 227.416L327.243 226.264C329.003 225.928 330.539 225.76 331.851 225.76C333.179 225.76 334.139 226.072 334.731 226.696C335.323 227.32 335.619 228.28 335.619 229.576ZM328.083 234.592C328.083 236.208 328.747 237.016 330.075 237.016C330.651 237.016 331.283 236.952 331.971 236.824C332.659 236.68 333.203 236.536 333.603 236.392L334.203 236.176V231.832L330.291 232.24C329.507 232.304 328.939 232.528 328.587 232.912C328.251 233.296 328.083 233.856 328.083 234.592ZM338.07 226H339.654L342.654 236.752H343.614L346.734 226H348.222L344.718 238H341.574L338.07 226ZM358.392 236.8L359.112 236.728L359.16 237.904C357.352 238.128 355.824 238.24 354.576 238.24C352.848 238.224 351.64 237.712 350.952 236.704C350.264 235.696 349.92 234.144 349.92 232.048C349.92 227.856 351.568 225.76 354.864 225.76C356.448 225.76 357.632 226.216 358.416 227.128C359.2 228.024 359.592 229.464 359.592 231.448L359.544 232.6H351.384C351.384 234.072 351.632 235.168 352.128 235.888C352.64 236.592 353.504 236.944 354.72 236.944C355.952 236.944 357.176 236.896 358.392 236.8ZM351.384 231.4H358.152C358.152 229.816 357.888 228.688 357.36 228.016C356.848 227.344 356.016 227.008 354.864 227.008C353.728 227.008 352.864 227.36 352.272 228.064C351.68 228.752 351.384 229.864 351.384 231.4ZM373.888 227.272H369.88V233.2C369.88 234.752 369.992 235.768 370.216 236.248C370.44 236.728 370.968 236.968 371.8 236.968L374.008 236.8L374.104 238.024C373.048 238.184 372.24 238.264 371.68 238.264C370.464 238.264 369.616 237.968 369.136 237.376C368.672 236.768 368.44 235.616 368.44 233.92V227.272H366.664V226H368.44V222.232H369.88V226H373.888V227.272ZM377.552 238H376.136V220.672H377.552V226.696C378.896 226.072 380.192 225.76 381.44 225.76C383.04 225.76 384.104 226.184 384.632 227.032C385.176 227.88 385.448 229.432 385.448 231.688V238H384.008V231.76C384.008 229.92 383.832 228.68 383.48 228.04C383.144 227.384 382.4 227.056 381.248 227.056C380.688 227.056 380.096 227.128 379.472 227.272C378.864 227.4 378.392 227.536 378.056 227.68L377.552 227.872V238ZM396.877 236.8L397.597 236.728L397.645 237.904C395.837 238.128 394.309 238.24 393.061 238.24C391.333 238.224 390.125 237.712 389.437 236.704C388.749 235.696 388.405 234.144 388.405 232.048C388.405 227.856 390.053 225.76 393.349 225.76C394.933 225.76 396.117 226.216 396.901 227.128C397.685 228.024 398.077 229.464 398.077 231.448L398.029 232.6H389.869C389.869 234.072 390.117 235.168 390.613 235.888C391.125 236.592 391.989 236.944 393.205 236.944C394.437 236.944 395.661 236.896 396.877 236.8ZM389.869 231.4H396.637C396.637 229.816 396.373 228.688 395.845 228.016C395.333 227.344 394.501 227.008 393.349 227.008C392.213 227.008 391.349 227.36 390.757 228.064C390.165 228.752 389.869 229.864 389.869 231.4ZM415.276 220.672V238H413.836V237.112C412.572 237.864 411.292 238.24 409.996 238.24C409.404 238.24 408.892 238.168 408.46 238.024C408.028 237.896 407.588 237.632 407.14 237.232C406.228 236.416 405.772 234.824 405.772 232.456C405.772 230.072 406.156 228.36 406.924 227.32C407.692 226.28 408.988 225.76 410.812 225.76C411.516 225.76 412.524 225.864 413.836 226.072V220.672H415.276ZM408.196 236.152C408.5 236.456 408.796 236.664 409.084 236.776C409.388 236.888 409.772 236.944 410.236 236.944C410.716 236.944 411.26 236.856 411.868 236.68C412.492 236.504 412.98 236.336 413.332 236.176L413.836 235.912V227.32C412.556 227.128 411.564 227.032 410.86 227.032C409.5 227.032 408.556 227.448 408.028 228.28C407.516 229.112 407.26 230.4 407.26 232.144C407.26 234.192 407.572 235.528 408.196 236.152ZM427.119 229.576V236.008C427.183 236.6 427.703 236.952 428.679 237.064L428.607 238.216C427.375 238.216 426.471 237.896 425.895 237.256C424.391 237.912 422.887 238.24 421.383 238.24C420.311 238.24 419.495 237.936 418.935 237.328C418.375 236.704 418.095 235.824 418.095 234.688C418.095 233.536 418.375 232.688 418.935 232.144C419.511 231.584 420.407 231.24 421.623 231.112L425.703 230.704V229.576C425.703 228.68 425.503 228.04 425.103 227.656C424.719 227.256 424.199 227.056 423.543 227.056C422.519 227.056 421.191 227.152 419.559 227.344L418.815 227.416L418.743 226.264C420.503 225.928 422.039 225.76 423.351 225.76C424.679 225.76 425.639 226.072 426.231 226.696C426.823 227.32 427.119 228.28 427.119 229.576ZM419.583 234.592C419.583 236.208 420.247 237.016 421.575 237.016C422.151 237.016 422.783 236.952 423.471 236.824C424.159 236.68 424.703 236.536 425.103 236.392L425.703 236.176V231.832L421.791 232.24C421.007 232.304 420.439 232.528 420.087 232.912C419.751 233.296 419.583 233.856 419.583 234.592ZM436.911 227.272H432.903V233.2C432.903 234.752 433.015 235.768 433.239 236.248C433.463 236.728 433.991 236.968 434.823 236.968L437.031 236.8L437.127 238.024C436.071 238.184 435.263 238.264 434.703 238.264C433.487 238.264 432.639 237.968 432.159 237.376C431.695 236.768 431.463 235.616 431.463 233.92V227.272H429.687V226H431.463V222.232H432.903V226H436.911V227.272ZM447.103 236.8L447.823 236.728L447.871 237.904C446.063 238.128 444.535 238.24 443.287 238.24C441.559 238.224 440.351 237.712 439.663 236.704C438.975 235.696 438.631 234.144 438.631 232.048C438.631 227.856 440.279 225.76 443.575 225.76C445.159 225.76 446.343 226.216 447.127 227.128C447.911 228.024 448.303 229.464 448.303 231.448L448.255 232.6H440.095C440.095 234.072 440.343 235.168 440.839 235.888C441.351 236.592 442.215 236.944 443.431 236.944C444.663 236.944 445.887 236.896 447.103 236.8ZM440.095 231.4H446.863C446.863 229.816 446.599 228.688 446.071 228.016C445.559 227.344 444.727 227.008 443.575 227.008C442.439 227.008 441.575 227.36 440.983 228.064C440.391 228.752 440.095 229.864 440.095 231.4ZM464.471 236.8L465.191 236.728L465.239 237.904C463.431 238.128 461.903 238.24 460.655 238.24C458.927 238.224 457.719 237.712 457.031 236.704C456.343 235.696 455.999 234.144 455.999 232.048C455.999 227.856 457.647 225.76 460.943 225.76C462.527 225.76 463.711 226.216 464.495 227.128C465.279 228.024 465.671 229.464 465.671 231.448L465.623 232.6H457.463C457.463 234.072 457.711 235.168 458.207 235.888C458.719 236.592 459.583 236.944 460.799 236.944C462.031 236.944 463.255 236.896 464.471 236.8ZM457.463 231.4H464.231C464.231 229.816 463.967 228.688 463.439 228.016C462.927 227.344 462.095 227.008 460.943 227.008C459.807 227.008 458.943 227.36 458.351 228.064C457.759 228.752 457.463 229.864 457.463 231.4ZM470.036 238H468.62V226H470.036V226.888C471.252 226.136 472.548 225.76 473.924 225.76C475.3 225.76 476.276 226.184 476.852 227.032C477.428 226.68 478.124 226.384 478.94 226.144C479.772 225.888 480.516 225.76 481.172 225.76C482.772 225.76 483.836 226.184 484.364 227.032C484.908 227.864 485.18 229.416 485.18 231.688V238H483.764V231.76C483.764 229.92 483.588 228.68 483.236 228.04C482.9 227.384 482.156 227.056 481.004 227.056C480.428 227.056 479.836 227.144 479.228 227.32C478.62 227.48 478.156 227.648 477.836 227.824L477.356 228.064C477.596 228.672 477.716 229.904 477.716 231.76V238H476.276V231.808C476.276 229.936 476.1 228.68 475.748 228.04C475.412 227.384 474.676 227.056 473.54 227.056C472.98 227.056 472.404 227.144 471.812 227.32C471.236 227.48 470.796 227.648 470.492 227.824L470.036 228.064V238ZM488.659 243.4V226H490.075V226.912C491.323 226.144 492.635 225.76 494.011 225.76C495.403 225.76 496.435 226.248 497.107 227.224C497.795 228.2 498.139 229.792 498.139 232C498.139 234.192 497.739 235.784 496.939 236.776C496.139 237.752 494.811 238.24 492.955 238.24C491.963 238.24 491.003 238.136 490.075 237.928V243.4H488.659ZM493.723 227.056C493.195 227.056 492.627 227.144 492.019 227.32C491.411 227.496 490.939 227.68 490.603 227.872L490.075 228.136V236.68C491.163 236.872 492.107 236.968 492.907 236.968C494.283 236.968 495.251 236.584 495.811 235.816C496.371 235.032 496.651 233.752 496.651 231.976C496.651 230.184 496.403 228.92 495.907 228.184C495.427 227.432 494.699 227.056 493.723 227.056ZM507.2 227.272H503.192V233.2C503.192 234.752 503.304 235.768 503.528 236.248C503.752 236.728 504.28 236.968 505.112 236.968L507.32 236.8L507.416 238.024C506.36 238.184 505.552 238.264 504.992 238.264C503.776 238.264 502.928 237.968 502.448 237.376C501.984 236.768 501.752 235.616 501.752 233.92V227.272H499.976V226H501.752V222.232H503.192V226H507.2V227.272ZM508.296 226H509.76L512.952 236.752H513.816L517.032 226H518.496L513.312 243.4H511.872L513.48 238H511.824L508.296 226ZM532.255 227.272H528.247V233.2C528.247 234.752 528.359 235.768 528.583 236.248C528.807 236.728 529.335 236.968 530.167 236.968L532.375 236.8L532.471 238.024C531.415 238.184 530.607 238.264 530.047 238.264C528.831 238.264 527.983 237.968 527.503 237.376C527.039 236.768 526.807 235.616 526.807 233.92V227.272H525.031V226H526.807V222.232H528.247V226H532.255V227.272ZM533.999 231.976C533.999 229.72 534.375 228.12 535.127 227.176C535.895 226.232 537.191 225.76 539.015 225.76C540.855 225.76 542.151 226.232 542.903 227.176C543.671 228.12 544.055 229.72 544.055 231.976C544.055 234.232 543.703 235.84 542.999 236.8C542.311 237.76 540.991 238.24 539.039 238.24C537.087 238.24 535.759 237.76 535.055 236.8C534.351 235.84 533.999 234.232 533.999 231.976ZM535.487 231.952C535.487 233.84 535.703 235.152 536.135 235.888C536.583 236.608 537.543 236.968 539.015 236.968C540.503 236.968 541.471 236.6 541.919 235.864C542.367 235.128 542.591 233.824 542.591 231.952C542.591 230.064 542.335 228.776 541.823 228.088C541.327 227.384 540.399 227.032 539.039 227.032C537.679 227.032 536.743 227.376 536.231 228.064C535.735 228.752 535.487 230.048 535.487 231.952ZM556.057 227.08C554.169 227.08 553.225 227.76 553.225 229.12C553.225 229.744 553.433 230.184 553.849 230.44C554.265 230.696 555.201 230.952 556.657 231.208C558.129 231.448 559.161 231.784 559.753 232.216C560.361 232.648 560.665 233.48 560.665 234.712C560.665 235.928 560.273 236.824 559.489 237.4C558.705 237.96 557.553 238.24 556.033 238.24C555.153 238.24 554.017 238.128 552.625 237.904L551.929 237.808L552.025 236.536C553.817 236.808 555.193 236.944 556.153 236.944C557.113 236.944 557.857 236.776 558.385 236.44C558.929 236.104 559.201 235.536 559.201 234.736C559.201 233.936 558.977 233.408 558.529 233.152C558.097 232.88 557.153 232.632 555.697 232.408C554.257 232.184 553.241 231.864 552.649 231.448C552.057 231.032 551.761 230.248 551.761 229.096C551.761 227.944 552.169 227.104 552.985 226.576C553.801 226.048 554.809 225.784 556.009 225.784C556.969 225.784 558.169 225.888 559.609 226.096L560.257 226.192L560.209 227.464C558.497 227.208 557.113 227.08 556.057 227.08ZM571.51 236.8L572.23 236.728L572.278 237.904C570.47 238.128 568.942 238.24 567.694 238.24C565.966 238.224 564.758 237.712 564.07 236.704C563.382 235.696 563.038 234.144 563.038 232.048C563.038 227.856 564.686 225.76 567.982 225.76C569.566 225.76 570.75 226.216 571.534 227.128C572.318 228.024 572.71 229.464 572.71 231.448L572.662 232.6H564.502C564.502 234.072 564.75 235.168 565.246 235.888C565.758 236.592 566.622 236.944 567.838 236.944C569.07 236.944 570.294 236.896 571.51 236.8ZM564.502 231.4H571.27C571.27 229.816 571.006 228.688 570.478 228.016C569.966 227.344 569.134 227.008 567.982 227.008C566.846 227.008 565.982 227.36 565.39 228.064C564.798 228.752 564.502 229.864 564.502 231.4ZM583.603 236.8L584.323 236.728L584.371 237.904C582.563 238.128 581.035 238.24 579.787 238.24C578.059 238.224 576.851 237.712 576.163 236.704C575.475 235.696 575.131 234.144 575.131 232.048C575.131 227.856 576.779 225.76 580.075 225.76C581.659 225.76 582.843 226.216 583.627 227.128C584.411 228.024 584.803 229.464 584.803 231.448L584.755 232.6H576.595C576.595 234.072 576.843 235.168 577.339 235.888C577.851 236.592 578.715 236.944 579.931 236.944C581.163 236.944 582.387 236.896 583.603 236.8ZM576.595 231.4H583.363C583.363 229.816 583.099 228.688 582.571 228.016C582.059 227.344 581.227 227.008 580.075 227.008C578.939 227.008 578.075 227.36 577.483 228.064C576.891 228.752 576.595 229.864 576.595 231.4ZM599.099 227.272H595.091V233.2C595.091 234.752 595.203 235.768 595.427 236.248C595.651 236.728 596.179 236.968 597.011 236.968L599.219 236.8L599.315 238.024C598.259 238.184 597.451 238.264 596.891 238.264C595.675 238.264 594.827 237.968 594.347 237.376C593.883 236.768 593.651 235.616 593.651 233.92V227.272H591.875V226H593.651V222.232H595.091V226H599.099V227.272ZM602.763 238H601.347V220.672H602.763V226.696C604.107 226.072 605.403 225.76 606.651 225.76C608.251 225.76 609.315 226.184 609.843 227.032C610.387 227.88 610.659 229.432 610.659 231.688V238H609.219V231.76C609.219 229.92 609.043 228.68 608.691 228.04C608.355 227.384 607.611 227.056 606.459 227.056C605.899 227.056 605.307 227.128 604.683 227.272C604.075 227.4 603.603 227.536 603.267 227.68L602.763 227.872V238ZM622.088 236.8L622.808 236.728L622.856 237.904C621.048 238.128 619.52 238.24 618.272 238.24C616.544 238.224 615.336 237.712 614.648 236.704C613.96 235.696 613.616 234.144 613.616 232.048C613.616 227.856 615.264 225.76 618.56 225.76C620.144 225.76 621.328 226.216 622.112 227.128C622.896 228.024 623.288 229.464 623.288 231.448L623.24 232.6H615.08C615.08 234.072 615.328 235.168 615.824 235.888C616.336 236.592 617.2 236.944 618.416 236.944C619.648 236.944 620.872 236.896 622.088 236.8ZM615.08 231.4H621.848C621.848 229.816 621.584 228.688 621.056 228.016C620.544 227.344 619.712 227.008 618.56 227.008C617.424 227.008 616.56 227.36 615.968 228.064C615.376 228.752 615.08 229.864 615.08 231.4ZM631.511 238V226H632.927V238H631.511ZM631.511 223V221.2H632.927V223H631.511ZM637.943 238H636.527V226H637.943V226.888C639.159 226.136 640.455 225.76 641.831 225.76C643.207 225.76 644.183 226.184 644.759 227.032C645.335 226.68 646.031 226.384 646.847 226.144C647.679 225.888 648.423 225.76 649.079 225.76C650.679 225.76 651.743 226.184 652.271 227.032C652.815 227.864 653.087 229.416 653.087 231.688V238H651.671V231.76C651.671 229.92 651.495 228.68 651.143 228.04C650.807 227.384 650.063 227.056 648.911 227.056C648.335 227.056 647.743 227.144 647.135 227.32C646.527 227.48 646.063 227.648 645.743 227.824L645.263 228.064C645.503 228.672 645.623 229.904 645.623 231.76V238H644.183V231.808C644.183 229.936 644.007 228.68 643.655 228.04C643.319 227.384 642.583 227.056 641.447 227.056C640.887 227.056 640.311 227.144 639.719 227.32C639.143 227.48 638.703 227.648 638.399 227.824L637.943 228.064V238ZM664.822 229.576V236.008C664.886 236.6 665.406 236.952 666.382 237.064L666.31 238.216C665.078 238.216 664.174 237.896 663.598 237.256C662.094 237.912 660.59 238.24 659.086 238.24C658.014 238.24 657.198 237.936 656.638 237.328C656.078 236.704 655.798 235.824 655.798 234.688C655.798 233.536 656.078 232.688 656.638 232.144C657.214 231.584 658.11 231.24 659.326 231.112L663.406 230.704V229.576C663.406 228.68 663.206 228.04 662.806 227.656C662.422 227.256 661.902 227.056 661.246 227.056C660.222 227.056 658.894 227.152 657.262 227.344L656.518 227.416L656.446 226.264C658.206 225.928 659.742 225.76 661.054 225.76C662.382 225.76 663.342 226.072 663.934 226.696C664.526 227.32 664.822 228.28 664.822 229.576ZM657.286 234.592C657.286 236.208 657.95 237.016 659.278 237.016C659.854 237.016 660.486 236.952 661.174 236.824C661.862 236.68 662.406 236.536 662.806 236.392L663.406 236.176V231.832L659.494 232.24C658.71 232.304 658.142 232.528 657.79 232.912C657.454 233.296 657.286 233.856 657.286 234.592ZM678.262 239.824C678.262 241.184 677.822 242.168 676.942 242.776C676.078 243.384 674.726 243.688 672.886 243.688C671.046 243.688 669.774 243.424 669.07 242.896C668.366 242.368 668.014 241.4 668.014 239.992C668.014 239.32 668.158 238.776 668.446 238.36C668.734 237.96 669.238 237.496 669.958 236.968C669.558 236.712 669.358 236.168 669.358 235.336C669.358 235.08 669.55 234.576 669.934 233.824L670.126 233.464C668.814 232.92 668.158 231.712 668.158 229.84C668.158 227.12 669.606 225.76 672.502 225.76C673.318 225.76 674.038 225.84 674.662 226L675.022 226.072L678.502 226V227.272L676.102 227.224C676.678 227.8 676.966 228.752 676.966 230.08C676.966 231.392 676.598 232.352 675.862 232.96C675.142 233.552 673.998 233.848 672.43 233.848C671.966 233.848 671.558 233.816 671.206 233.752C670.886 234.536 670.726 235.032 670.726 235.24C670.726 235.768 670.878 236.096 671.182 236.224C671.502 236.336 672.438 236.4 673.99 236.416C675.542 236.416 676.638 236.648 677.278 237.112C677.934 237.56 678.262 238.464 678.262 239.824ZM669.454 239.896C669.454 240.856 669.694 241.52 670.174 241.888C670.654 242.256 671.582 242.44 672.958 242.44C674.334 242.44 675.318 242.24 675.91 241.84C676.502 241.456 676.798 240.8 676.798 239.872C676.798 238.96 676.582 238.368 676.15 238.096C675.718 237.824 674.894 237.688 673.678 237.688L670.966 237.592C670.374 238.008 669.974 238.368 669.766 238.672C669.558 238.992 669.454 239.4 669.454 239.896ZM669.622 229.84C669.622 230.864 669.846 231.592 670.294 232.024C670.742 232.44 671.494 232.648 672.55 232.648C673.622 232.648 674.382 232.44 674.83 232.024C675.278 231.608 675.502 230.88 675.502 229.84C675.502 228.784 675.278 228.04 674.83 227.608C674.382 227.176 673.622 226.96 672.55 226.96C671.494 226.96 670.742 227.184 670.294 227.632C669.846 228.064 669.622 228.8 669.622 229.84ZM688.697 236.8L689.417 236.728L689.465 237.904C687.657 238.128 686.129 238.24 684.881 238.24C683.153 238.224 681.945 237.712 681.257 236.704C680.569 235.696 680.225 234.144 680.225 232.048C680.225 227.856 681.873 225.76 685.169 225.76C686.753 225.76 687.937 226.216 688.721 227.128C689.505 228.024 689.897 229.464 689.897 231.448L689.849 232.6H681.689C681.689 234.072 681.937 235.168 682.433 235.888C682.945 236.592 683.809 236.944 685.025 236.944C686.257 236.944 687.481 236.896 688.697 236.8ZM681.689 231.4H688.457C688.457 229.816 688.193 228.688 687.665 228.016C687.153 227.344 686.321 227.008 685.169 227.008C684.033 227.008 683.169 227.36 682.577 228.064C681.985 228.752 681.689 229.864 681.689 231.4ZM697.616 231.976C697.616 229.72 697.992 228.12 698.744 227.176C699.512 226.232 700.808 225.76 702.632 225.76C704.472 225.76 705.768 226.232 706.52 227.176C707.288 228.12 707.672 229.72 707.672 231.976C707.672 234.232 707.32 235.84 706.616 236.8C705.928 237.76 704.608 238.24 702.656 238.24C700.704 238.24 699.376 237.76 698.672 236.8C697.968 235.84 697.616 234.232 697.616 231.976ZM699.104 231.952C699.104 233.84 699.32 235.152 699.752 235.888C700.2 236.608 701.16 236.968 702.632 236.968C704.12 236.968 705.088 236.6 705.536 235.864C705.984 235.128 706.208 233.824 706.208 231.952C706.208 230.064 705.952 228.776 705.44 228.088C704.944 227.384 704.016 227.032 702.656 227.032C701.296 227.032 700.36 227.376 699.848 228.064C699.352 228.752 699.104 230.048 699.104 231.952ZM712.697 227.272V238H711.257V227.272H709.697V226H711.257V224.776C711.257 223.08 711.489 221.936 711.953 221.344C712.417 220.736 713.241 220.432 714.425 220.432L716.753 220.552V221.776C715.809 221.744 715.105 221.728 714.641 221.728C713.889 221.728 713.377 221.936 713.105 222.352C712.833 222.768 712.697 223.584 712.697 224.8V226H716.321V227.272H712.697ZM729.903 227.272H725.895V233.2C725.895 234.752 726.007 235.768 726.231 236.248C726.455 236.728 726.983 236.968 727.815 236.968L730.023 236.8L730.119 238.024C729.063 238.184 728.255 238.264 727.695 238.264C726.479 238.264 725.631 237.968 725.151 237.376C724.687 236.768 724.455 235.616 724.455 233.92V227.272H722.679V226H724.455V222.232H725.895V226H729.903V227.272ZM731.648 231.976C731.648 229.72 732.024 228.12 732.776 227.176C733.544 226.232 734.84 225.76 736.664 225.76C738.504 225.76 739.8 226.232 740.552 227.176C741.32 228.12 741.704 229.72 741.704 231.976C741.704 234.232 741.352 235.84 740.648 236.8C739.96 237.76 738.64 238.24 736.688 238.24C734.736 238.24 733.408 237.76 732.704 236.8C732 235.84 731.648 234.232 731.648 231.976ZM733.136 231.952C733.136 233.84 733.352 235.152 733.784 235.888C734.232 236.608 735.192 236.968 736.664 236.968C738.152 236.968 739.12 236.6 739.568 235.864C740.016 235.128 740.24 233.824 740.24 231.952C740.24 230.064 739.984 228.776 739.472 228.088C738.976 227.384 738.048 227.032 736.688 227.032C735.328 227.032 734.392 227.376 733.88 228.064C733.384 228.752 733.136 230.048 733.136 231.952ZM753.784 220.672V238H752.344V237.112C751.08 237.864 749.8 238.24 748.504 238.24C747.912 238.24 747.4 238.168 746.968 238.024C746.536 237.896 746.096 237.632 745.648 237.232C744.736 236.416 744.28 234.824 744.28 232.456C744.28 230.072 744.664 228.36 745.432 227.32C746.2 226.28 747.496 225.76 749.32 225.76C750.024 225.76 751.032 225.864 752.344 226.072V220.672H753.784ZM746.704 236.152C747.008 236.456 747.304 236.664 747.592 236.776C747.896 236.888 748.28 236.944 748.744 236.944C749.224 236.944 749.768 236.856 750.376 236.68C751 236.504 751.488 236.336 751.84 236.176L752.344 235.912V227.32C751.064 227.128 750.072 227.032 749.368 227.032C748.008 227.032 747.064 227.448 746.536 228.28C746.024 229.112 745.768 230.4 745.768 232.144C745.768 234.192 746.08 235.528 746.704 236.152ZM765.626 229.576V236.008C765.69 236.6 766.21 236.952 767.186 237.064L767.114 238.216C765.882 238.216 764.978 237.896 764.402 237.256C762.898 237.912 761.394 238.24 759.89 238.24C758.818 238.24 758.002 237.936 757.442 237.328C756.882 236.704 756.602 235.824 756.602 234.688C756.602 233.536 756.882 232.688 757.442 232.144C758.018 231.584 758.914 231.24 760.13 231.112L764.21 230.704V229.576C764.21 228.68 764.01 228.04 763.61 227.656C763.226 227.256 762.706 227.056 762.05 227.056C761.026 227.056 759.698 227.152 758.066 227.344L757.322 227.416L757.25 226.264C759.01 225.928 760.546 225.76 761.858 225.76C763.186 225.76 764.146 226.072 764.738 226.696C765.33 227.32 765.626 228.28 765.626 229.576ZM758.09 234.592C758.09 236.208 758.754 237.016 760.082 237.016C760.658 237.016 761.29 236.952 761.978 236.824C762.666 236.68 763.21 236.536 763.61 236.392L764.21 236.176V231.832L760.298 232.24C759.514 232.304 758.946 232.528 758.594 232.912C758.258 233.296 758.09 233.856 758.09 234.592ZM768.078 226H769.542L772.734 236.752H773.598L776.814 226H778.278L773.094 243.4H771.654L773.262 238H771.606L768.078 226ZM779.633 238V235.576H781.217V238H779.633Z" fill="white" fill-opacity="0.85"/>
</svg>
